<svg width="197" height="44" viewBox="0 0 197 44" fill="none" xmlns="http://www.w3.org/2000/svg">
<g clip-path="url(#clip0_44_58)">
<path d="M55.9309 33.8015C54.3103 33.8015 52.8795 33.3894 51.635 32.5643C50.3925 31.7368 49.4277 30.5868 48.74 29.115C48.0513 27.6442 47.7075 25.9496 47.7075 24.0291C47.7075 22.1107 48.0513 20.4152 48.74 18.9433C49.4277 17.4726 50.3925 16.3235 51.635 15.4994C52.8795 14.6742 54.3103 14.261 55.9309 14.261C57.0416 14.261 58.014 14.4568 58.8462 14.8485C59.6785 15.2379 60.472 15.9663 61.2248 17.0379V7.9046H65.719V33.4315H61.2248V31.0547C60.472 32.1037 59.6785 32.8236 58.8462 33.2152C58.014 33.6056 57.0416 33.8015 55.9309 33.8015ZM56.9632 29.9185C58.4039 29.9185 59.5703 29.3742 60.4591 28.2821C61.348 27.188 61.7926 25.771 61.7926 24.0291C61.7926 22.2894 61.348 20.8735 60.4591 19.7815C59.5703 18.6873 58.4039 18.1396 56.9632 18.1396C55.541 18.1396 54.3961 18.6927 53.5307 19.7987C52.6675 20.9014 52.2358 22.3119 52.2358 24.0291C52.2358 25.7247 52.6675 27.1321 53.5307 28.2478C54.3961 29.3624 55.541 29.9185 56.9632 29.9185Z" fill="white"/>
<path d="M76.9072 33.8015C74.9997 33.8015 73.3289 33.384 71.8958 32.547C70.466 31.7079 69.3544 30.5641 68.5649 29.115C67.7777 27.6679 67.3848 26.0174 67.3848 24.1657C67.3848 22.9382 67.5721 21.7331 67.948 20.5508C68.3249 19.3684 68.9024 18.3043 69.6789 17.3575C70.4574 16.4075 71.4352 15.6554 72.6112 15.0992C73.7873 14.5408 75.1763 14.261 76.7754 14.261C77.9738 14.261 79.1338 14.4515 80.2541 14.8313C81.3734 15.2089 82.379 15.7942 83.2679 16.5882C84.1569 17.379 84.8606 18.3882 85.3844 19.6158C85.9048 20.8401 86.1662 22.3012 86.1662 23.9959V24.9651H72.048C72.0908 25.3675 72.1775 25.7646 72.3114 26.1562C72.4463 26.5446 72.5909 26.8846 72.7461 27.1761C73.1885 28.0466 73.7819 28.7223 74.5241 29.2009C75.2685 29.6797 76.12 29.9185 77.0764 29.9185C78.1387 29.9185 79.032 29.6411 79.7551 29.0815C80.4768 28.5231 80.9825 27.8648 81.2706 27.1083H85.8664C85.5106 28.3135 84.9431 29.4238 84.1643 30.4383C83.3878 31.4528 82.4016 32.2683 81.2019 32.8827C80.0024 33.496 78.5704 33.8015 76.9072 33.8015ZM72.2471 21.5889H81.5704C81.548 21.3416 81.4857 21.063 81.3841 20.7508C81.2844 20.4389 81.1141 20.1387 80.8721 19.8493C80.4491 19.1811 79.8867 18.6787 79.1885 18.3441C78.4879 18.0106 77.7275 17.8416 76.9072 17.8416C76.0857 17.8416 75.3369 18.0106 74.6592 18.3441C73.9822 18.6787 73.4221 19.1811 72.9797 19.8493C72.7334 20.1387 72.5598 20.4389 72.4593 20.7508C72.3595 21.063 72.29 21.3416 72.2471 21.5889Z" fill="white"/>
<path d="M96.6191 33.4316H93.0558L86.1616 14.6613H90.9567L94.8198 26.5048L98.7515 14.6613H103.547L96.6191 33.4316Z" fill="white"/>
<path d="M112.402 33.8015C110.979 33.8015 109.624 33.5734 108.338 33.1173C107.052 32.6579 105.969 31.9326 105.093 30.9396C104.214 29.9477 103.664 28.6706 103.441 27.1083H107.873C108.16 28.1348 108.692 28.9158 109.468 29.4517C110.247 29.9875 111.213 30.2555 112.367 30.2555C113.321 30.2555 114.108 30.066 114.729 29.6851C115.352 29.3054 115.664 28.7696 115.664 28.0778C115.664 27.5194 115.458 27.0782 115.046 26.7555C114.637 26.4316 114.099 26.181 113.434 26.0023C112.768 25.8236 112.034 25.6569 111.233 25.501C110.434 25.3461 109.619 25.1566 108.787 24.935C107.955 24.7123 107.193 24.4035 106.506 24.012C105.817 23.6214 105.261 23.0975 104.839 22.439C104.417 21.7816 104.208 20.9285 104.208 19.8794C104.208 18.5636 104.54 17.493 105.207 16.6689C105.873 15.8437 106.753 15.238 107.852 14.8485C108.952 14.4569 110.146 14.261 111.437 14.261C113.612 14.261 115.432 14.8141 116.896 15.9201C118.36 17.024 119.258 18.5991 119.591 20.6487H115.364C115.099 19.6233 114.598 18.8928 113.866 18.4592C113.131 18.0245 112.311 17.8083 111.402 17.8083C110.513 17.8083 109.808 17.9815 109.286 18.3269C108.763 18.6733 108.503 19.1349 108.503 19.7137C108.503 20.2269 108.703 20.6293 109.104 20.9209C109.505 21.2103 110.032 21.4329 110.687 21.5889C111.341 21.7451 112.046 21.901 112.799 22.056C113.62 22.213 114.458 22.397 115.313 22.609C116.167 22.8199 116.956 23.12 117.679 23.5107C118.4 23.9021 118.983 24.438 119.427 25.118C119.869 25.7991 120.092 26.6737 120.092 27.7421C120.092 29.5734 119.414 31.0419 118.06 32.1479C116.705 33.2508 114.819 33.8015 112.402 33.8015Z" fill="white"/>
<path d="M130.546 33.8015C128.68 33.8015 127.031 33.3894 125.598 32.5643C124.168 31.7368 123.053 30.5814 122.256 29.0989C121.456 27.6163 121.058 25.8926 121.058 23.9269C121.058 22.0345 121.456 20.3625 122.256 18.9143C123.053 17.4629 124.164 16.3236 125.585 15.4994C127.008 14.6742 128.66 14.261 130.546 14.261C132.789 14.261 134.691 14.842 136.255 16.0008C137.821 17.1606 138.838 18.7099 139.306 20.6487H134.409C133.831 18.8433 132.544 17.9396 130.546 17.9396C129.104 17.9396 127.928 18.4872 127.016 19.5814C126.107 20.6734 125.654 22.1227 125.654 23.9269C125.654 25.8022 126.107 27.3031 127.016 28.4306C127.928 29.557 129.104 30.1187 130.546 30.1187C131.634 30.1187 132.512 29.8508 133.178 29.3151C133.844 28.7793 134.288 28.0433 134.511 27.1083H139.369C139.082 28.5147 138.528 29.7196 137.706 30.7233C136.886 31.7261 135.859 32.4912 134.626 33.0151C133.395 33.5389 132.035 33.8015 130.546 33.8015Z" fill="white"/>
<path d="M145.329 33.4315H140.835V14.6613H145.329V16.9024C146.041 15.9222 146.833 15.238 147.708 14.8485C148.585 14.4569 149.569 14.261 150.658 14.261H151.191V18.6077H150.159C149.402 18.6077 148.751 18.7088 148.207 18.91C147.665 19.1112 147.206 19.3899 146.828 19.7471C146.34 20.2387 145.967 20.881 145.711 21.674C145.457 22.4648 145.329 23.4836 145.329 24.7307V33.4315Z" fill="white"/>
<path d="M154.453 12.5859C153.696 12.5859 153.046 12.3524 152.502 11.8844C151.96 11.4164 151.689 10.7913 151.689 10.0091C151.689 9.2517 151.96 8.63413 152.502 8.15535C153.046 7.67658 153.696 7.43665 154.453 7.43665C155.206 7.43665 155.855 7.67658 156.399 8.15535C156.943 8.63413 157.216 9.2517 157.216 10.0091C157.216 10.7913 156.943 11.4164 156.399 11.8844C155.855 12.3524 155.206 12.5859 154.453 12.5859ZM156.683 33.4316H152.189V14.6613H156.683V33.4316Z" fill="white"/>
<path d="M168.937 33.8015C167.848 33.8015 166.882 33.6056 166.039 33.2152C165.197 32.8236 164.398 32.1037 163.643 31.0547V33.4315H159.148V7.9046H163.643V17.0379C164.398 15.9663 165.197 15.2379 166.039 14.8485C166.882 14.4568 167.848 14.261 168.937 14.261C170.579 14.261 172.016 14.6742 173.25 15.4994C174.483 16.3235 175.441 17.4726 176.128 18.9433C176.815 20.4152 177.16 22.1107 177.16 24.0291C177.16 25.9496 176.815 27.6442 176.128 29.115C175.441 30.5868 174.483 31.7368 173.25 32.5643C172.016 33.3894 170.579 33.8015 168.937 33.8015ZM167.905 29.9185C169.348 29.9185 170.496 29.3624 171.349 28.2478C172.205 27.1321 172.632 25.7247 172.632 24.0291C172.632 22.3119 172.205 20.9014 171.349 19.7987C170.496 18.6927 169.348 18.1396 167.905 18.1396C166.484 18.1396 165.325 18.6873 164.426 19.7815C163.525 20.8735 163.076 22.2894 163.076 24.0291C163.076 25.771 163.525 27.188 164.426 28.2821C165.325 29.3742 166.484 29.9185 167.905 29.9185Z" fill="white"/>
<mask id="mask0_44_58" style="mask-type:luminance" maskUnits="userSpaceOnUse" x="178" y="14" width="19" height="21">
<path d="M178.083 14.1771H196.895V34.0081H178.083V14.1771Z" fill="white"/>
</mask>
<g mask="url(#mask0_44_58)">
<path d="M187.615 33.8015C185.707 33.8015 184.037 33.384 182.605 32.547C181.175 31.7079 180.063 30.5641 179.274 29.115C178.486 27.6679 178.093 26.0174 178.093 24.1657C178.093 22.9382 178.28 21.7331 178.656 20.5508C179.034 19.3684 179.61 18.3043 180.386 17.3575C181.165 16.4075 182.143 15.6554 183.32 15.0992C184.496 14.5408 185.884 14.261 187.484 14.261C188.683 14.261 189.843 14.4515 190.963 14.8313C192.082 15.2089 193.088 15.7942 193.977 16.5882C194.864 17.379 195.569 18.3882 196.092 19.6158C196.614 20.8401 196.875 22.3012 196.875 23.9959V24.9651H182.756C182.799 25.3675 182.886 25.7646 183.019 26.1562C183.155 26.5446 183.3 26.8846 183.455 27.1761C183.897 28.0466 184.489 28.7223 185.233 29.2009C185.977 29.6797 186.829 29.9185 187.785 29.9185C188.847 29.9185 189.741 29.6411 190.464 29.0815C191.185 28.5231 191.691 27.8648 191.978 27.1083H196.575C196.219 28.3135 195.652 29.4238 194.873 30.4383C194.097 31.4528 193.11 32.2683 191.911 32.8827C190.711 33.496 189.279 33.8015 187.615 33.8015ZM182.956 21.5889H192.279C192.255 21.3416 192.194 21.063 192.093 20.7508C191.993 20.4389 191.823 20.1387 191.581 19.8493C191.158 19.1811 190.595 18.6787 189.896 18.3441C189.196 18.0106 188.436 17.8416 187.615 17.8416C186.794 17.8416 186.046 18.0106 185.368 18.3441C184.691 18.6787 184.13 19.1811 183.688 19.8493C183.442 20.1387 183.269 20.4389 183.168 20.7508C183.068 21.063 182.997 21.3416 182.956 21.5889Z" fill="white"/>
</g>
<mask id="mask1_44_58" style="mask-type:luminance" maskUnits="userSpaceOnUse" x="17" y="17" width="19" height="27">
<path d="M17.0679 17.7653H35.1639V43.9085H17.0679V17.7653Z" fill="white"/>
</mask>
<g mask="url(#mask1_44_58)">
<path d="M25.3329 43.8924C23.7092 43.8924 22.2751 43.4803 21.0283 42.6552C19.7839 41.8277 18.8167 40.6765 18.1292 39.2015C17.4405 37.7287 17.0967 36.0319 17.0967 34.1124C17.0967 32.1898 17.4405 30.492 18.1292 29.0171C18.8167 27.5442 19.7839 26.394 21.0283 25.5688C22.2751 24.7414 23.7092 24.3273 25.3329 24.3273C26.4436 24.3273 27.416 24.5231 28.2482 24.9135C29.0804 25.3052 29.875 26.0369 30.6312 27.1083V17.9654H35.1338V43.5224H30.6312V41.1456C29.875 42.1946 29.0804 42.9145 28.2482 43.3061C27.416 43.6966 26.4436 43.8924 25.3329 43.8924ZM26.3654 40.0051C27.809 40.0051 28.9764 39.4597 29.8654 38.3645C30.7543 37.2703 31.1979 35.8534 31.1979 34.1124C31.1979 32.3685 30.7543 30.9504 29.8654 29.8551C28.9764 28.7609 27.809 28.2133 26.3654 28.2133C24.943 28.2133 23.797 28.7663 22.9284 29.8723C22.0619 30.9772 21.6292 32.3921 21.6292 34.1124C21.6292 35.8071 22.0619 37.2143 22.9284 38.33C23.797 39.448 24.943 40.0051 26.3654 40.0051Z" fill="white"/>
</g>
<path d="M30.6396 0H33.1073C34.243 0 35.1637 0.924857 35.1637 2.06573V16.3192H30.6396V0Z" fill="white"/>
<path d="M31.2568 4.5446V0L4.31842 0V4.5446L31.2568 4.5446Z" fill="white"/>
<path d="M16.4512 43.5868V39.0422H4.3186V43.5868H16.4512Z" fill="white"/>
<path d="M15.0114 26.2347C16.2607 26.2347 17.2734 25.2174 17.2734 23.9624C17.2734 22.7075 16.2607 21.6901 15.0114 21.6901H9.2536C8.00433 21.6901 6.9916 22.7075 6.9916 23.9624C6.9916 25.2174 8.00433 26.2347 9.2536 26.2347H15.0114Z" fill="white"/>
<path d="M24.2653 19.0047C25.5146 19.0047 26.5273 17.9873 26.5273 16.7324C26.5273 15.4774 25.5146 14.4601 24.2653 14.4601L9.25386 14.4601C8.00459 14.4601 6.99185 15.4774 6.99185 16.7324C6.99185 17.9873 8.00459 19.0047 9.25386 19.0047H24.2653Z" fill="white"/>
<path d="M25.9104 11.9812C27.1596 11.9812 28.1724 10.9639 28.1724 9.70895C28.1724 8.45399 27.1596 7.43665 25.9104 7.43665L9.25378 7.43665C8.00451 7.43665 6.99178 8.45399 6.99178 9.70895C6.99178 10.9639 8.00451 11.9812 9.25378 11.9812H25.9104Z" fill="white"/>
<path d="M4.52401 0H2.05637C0.920666 0 0 0.924857 0 2.06573V41.5211C0 42.662 0.920666 43.5869 2.05637 43.5869H4.52401V0Z" fill="white"/>
</g>
<defs>
<clipPath id="clip0_44_58">
<rect width="197" height="44" fill="white"/>
</clipPath>
</defs>
</svg>
